<svg width="16" height="16" viewBox="0 0 16 16" fill="none" xmlns="http://www.w3.org/2000/svg">
<rect width="16" height="16" fill="#1D1006"/>
<path d="M14.9296 6.91946C14.7779 6.78988 13.59 6.70102 13.0979 6.74174C12.6057 6.78247 11.7028 6.92687 11.2661 7.22677C11.2661 7.22677 11.1514 7.30822 11.1514 7.23417C11.1514 7.16012 11.255 6.78988 10.9405 6.48257C10.6259 6.17527 10.4742 6.10492 10.0449 6.20859C9.61568 6.31226 9.47876 6.5233 9.47876 6.57143C9.47876 6.61956 8.82746 6.60105 8.82746 6.60105C8.82746 6.60105 9.15681 6.19378 8.90518 5.7717C8.65724 5.34962 8.15767 4.4055 6.67376 4.12781C5.18985 3.85013 4.28322 3.98342 3.24708 4.94235C2.21093 5.90129 2 7.83397 2 8.24124C2 8.64851 3.78735 9.29274 4.06119 9.3853C4.06119 9.3853 3.99458 9.67409 4.06119 9.76665C4.1278 9.85921 4.44235 10.1073 4.50895 10.359C4.57556 10.6071 4.65327 11.2661 4.71988 11.3587C4.78649 11.4513 4.8642 11.5549 4.98262 11.4365C5.10104 11.318 5.06033 10.7515 4.89011 10.385C4.71988 10.0184 4.57186 9.85181 4.49415 9.77406C4.41644 9.6963 4.46085 9.52969 4.46085 9.52969C4.46085 9.52969 5.13804 9.79257 5.39338 9.6926C5.39338 9.6926 5.68942 9.92586 5.92255 9.94437C6.15569 9.95918 6.41472 9.8407 6.45543 9.80368C6.49984 9.76665 6.61825 9.73333 6.61455 9.79627C6.60715 9.86291 6.08908 10.4553 5.99286 10.6367C5.89665 10.8181 5.25646 11.6216 5.25646 11.7067C5.25646 11.7919 5.13064 11.9881 5.29346 11.9992C5.45629 12.0103 5.571 11.8993 5.59321 11.7882C5.61541 11.6771 6.42212 10.5034 6.52574 10.4701C6.63305 10.4368 7.21404 10.0036 7.23254 9.90734C7.23254 9.90734 7.69881 10.0628 7.85793 10.0628C8.01705 10.0628 8.85707 9.84811 8.85707 9.84811C8.85707 9.84811 8.66094 10.1443 8.80156 10.2517C8.94218 10.3553 9.1013 10.4331 9.1013 10.4738V10.6145C9.1013 10.6145 9.97833 10.2072 10.056 10.1073C10.056 10.1073 10.3484 10.3368 10.452 10.4516C10.5519 10.5664 11.0293 11.1662 11.1662 11.2402C11.3031 11.3143 11.5622 11.6364 11.7287 11.4994C11.8952 11.3624 11.3438 11.0218 11.2069 10.7552C11.07 10.4886 10.3336 9.90734 10.3336 9.90734C10.3336 9.90734 10.4076 9.5445 10.5297 9.40011C10.6518 9.25571 10.9849 8.7929 10.9849 8.60408C10.9849 8.41525 10.9183 8.09684 10.9997 8.00428C11.0774 7.90802 11.3734 7.84878 11.3734 7.68217C11.3734 7.51556 11.688 7.31192 11.9137 7.26379C12.1394 7.21566 12.898 7.07867 13.1238 7.08607C13.3495 7.09348 14.8667 7.1268 14.8667 7.1268C14.8667 7.1268 15.0776 7.05275 14.9222 6.92317L14.9296 6.91946ZM10.7554 7.40078C10.4705 7.4267 10.3188 7.2749 10.2744 7.18234C10.23 7.08978 10.0227 6.95649 10.1226 6.76766C10.2226 6.57513 10.341 6.5307 10.341 6.5307C10.341 6.5307 10.6962 6.54551 10.8146 6.71583C10.9331 6.88614 10.9738 7.17123 10.9738 7.17123C10.9738 7.17123 11.0404 7.37486 10.7554 7.40078Z" fill="#F4E8D9"/>
<path d="M4.00365 9.25945C4.00365 9.25945 3.87043 9.7815 3.69651 9.97033C3.52628 10.1554 3.07852 10.3072 2.949 10.4257C2.82318 10.5442 2.59005 10.7997 2.52344 10.8589C2.45683 10.9182 2.35322 11.0366 2.2533 10.9552C2.15709 10.8737 2.07568 10.6701 2.2533 10.5368C2.43093 10.4035 2.9305 10.0074 3.15623 9.87406C3.37826 9.74077 3.72241 9.26316 3.75202 9.1706C3.78162 9.07803 3.99995 9.25945 3.99995 9.25945H4.00365Z" fill="#F4E8D9"/>
<path d="M9.07084 10.248C9.07084 10.248 8.66008 10.9182 8.67119 11.0959C8.68229 11.2699 8.59718 11.518 8.67119 11.6698C8.7452 11.8179 8.81551 11.9179 8.85621 11.6698C8.89692 11.4217 9.03014 10.8367 9.07084 10.7257C9.11155 10.6146 9.28177 10.3258 9.28177 10.3258L9.07084 10.2517V10.248Z" fill="#F4E8D9"/>
</svg>
