<svg width="85" height="32" viewBox="0 0 85 32" fill="none" xmlns="http://www.w3.org/2000/svg">
<g clip-path="url(#clip0_508_145)">
<path d="M17.4989 21.5173L17.5598 21.4463C17.5801 21.4159 17.6105 21.3855 17.6308 21.3652C17.1134 21.1725 16.6063 20.9696 16.0889 20.7768C15.886 20.6957 15.6527 20.5537 15.602 20.3609C15.602 20.3609 15.5919 20.3609 15.5817 20.3609C15.3281 20.3812 15.0847 20.2697 14.8615 20.1479C13.979 19.6813 13.1472 19.093 12.4169 18.4032C11.7981 18.5553 11.1692 18.6872 10.5301 18.6872C10.1954 18.6872 9.87076 18.6466 9.53602 18.6162C8.55207 18.5046 7.56812 18.393 6.59431 18.2612C6.29 18.2206 5.97554 18.1699 5.67122 18.1902C5.2249 18.2105 4.79886 18.3525 4.37282 18.4945C4.07864 18.5858 3.78447 18.6872 3.54102 18.8597C3.33815 19.0017 3.1657 19.1944 3.0034 19.3871C2.27305 20.2392 1.65427 21.1826 1.15723 22.1868C1.39053 21.2029 1.75571 20.2595 2.23247 19.377C2.38463 19.1031 2.54693 18.8394 2.78024 18.6466C2.95268 18.5148 3.14541 18.4235 3.33815 18.3119C3.69318 18.0989 4.00764 17.7946 4.38296 17.6323C4.82929 17.4395 5.33648 17.4395 5.82338 17.4598C7.47682 17.5511 9.10998 17.896 10.7533 18.0887C11.1692 18.1395 11.6155 18.1597 11.9908 17.9974C11.8488 17.8554 11.7169 17.7134 11.5952 17.5613C11.5445 17.5004 11.4938 17.4294 11.5039 17.3584C11.4228 17.2772 11.3822 17.1656 11.3416 17.0541C11.23 16.7092 11.159 16.344 11.1083 15.9788C10.946 16.0498 10.7634 16.1107 10.5098 16.1513C10.4185 16.1716 10.0635 16.1817 9.83019 16.131C9.62731 16.0904 9.37371 15.8774 9.31285 15.7962C8.97811 15.3702 8.91724 15.0963 8.5825 14.6703C8.44048 14.4877 8.28833 14.3051 8.20718 14.0819C8.13617 13.8791 8.12603 13.6559 8.11588 13.4429C8.10574 13.1994 8.09559 12.9458 8.11588 12.6922C6.84791 12.2763 5.92482 11.1707 4.72785 10.5823C4.43368 10.4403 4.11922 10.3287 3.84534 10.136C3.57145 9.95339 3.33815 9.66937 3.29757 9.34477C3.29757 9.34477 3.29757 9.34477 3.29757 9.33462C2.64837 8.62456 1.99916 7.91449 1.34996 7.19428C1.16737 7.00154 0.984782 6.78853 0.893488 6.54507C0.852913 6.42335 0.842769 6.30162 0.852913 6.1799C0.639893 5.96688 0.437017 5.74371 0.23414 5.53069C0.112415 5.39882 -0.0295987 5.23652 0.0109766 5.06408C0.0616956 4.85106 0.345722 4.78005 0.538455 4.8612C0.741331 4.94235 0.863057 5.13508 0.994926 5.30753C1.10651 5.45969 1.23838 5.61184 1.40068 5.68285C1.50212 5.68285 1.60355 5.69299 1.70499 5.72343C1.92816 5.79443 2.12089 5.9263 2.33391 6.02774C2.75995 6.24076 3.24685 6.35234 3.62217 6.64651C4.07864 7.00155 4.29166 7.57974 4.35253 8.15794C4.36267 8.15794 4.37282 8.15794 4.38296 8.15794C4.91044 8.17823 5.43792 8.34053 5.88424 8.6347C6.92906 9.30419 7.52754 10.6026 8.67379 11.0895C8.94767 10.8156 9.30271 10.6432 9.66789 10.5012C9.8099 10.4504 9.96206 10.3997 10.1041 10.3591L9.89105 10.3896C9.36357 9.3752 8.82595 8.36082 8.29847 7.35658C8.0043 6.79867 7.71013 6.22047 7.68984 5.59156C7.68984 5.36839 7.73042 5.14523 7.80142 4.93221L7.6797 4.97278C7.30438 4.30329 7.07107 3.57294 6.83776 2.85273C6.74647 2.57884 6.66532 2.30496 6.64503 2.02093C6.62474 1.69633 6.70589 1.37173 6.86819 1.09785C6.64503 0.631231 6.73632 0.0226026 7.1015 -0.352718C7.14208 -0.393294 7.20294 -0.433869 7.25366 -0.403438C7.27395 -0.38315 7.28409 -0.362862 7.29423 -0.342575C7.40582 -0.0281165 7.45653 0.306629 7.46668 0.641375C7.48697 0.641375 7.50725 0.641375 7.53769 0.661663C7.60869 0.692094 7.65941 0.742813 7.71013 0.793532C7.92315 1.02684 8.14631 1.25 8.35933 1.48331C8.56221 1.69633 8.76509 1.90935 8.88681 2.17309C9.01868 2.45712 9.04911 2.77158 9.07954 3.08603C9.10998 3.44107 9.15055 3.80624 9.18098 4.16128C9.58673 4.27286 9.94177 4.59746 10.1548 4.97278C10.449 5.5104 10.5301 6.13932 10.662 6.73781C10.9257 7.88406 11.4228 9.08103 11.0576 10.1867C11.6459 10.1258 12.2343 10.1563 12.8023 10.278C13.3704 10.3997 13.9891 10.6837 14.1109 11.2518C14.1717 11.5155 14.3746 12.0836 14.5673 12.4488C14.6485 12.3981 14.7398 12.3473 14.8311 12.3068C15.1861 12.1242 15.5919 11.9822 15.9875 12.043C16.3019 12.0937 16.5961 12.256 16.87 12.4183C16.9004 12.4386 16.9207 12.4488 16.9511 12.4691C17.3062 11.2924 17.367 10.0447 17.5598 8.82743C17.7728 7.49859 18.1785 6.13932 19.1625 5.21623C19.4871 4.91192 19.8726 4.65832 20.2479 4.41487C20.9681 3.9584 21.7695 3.4715 22.6114 3.62366C21.4144 4.39459 20.1667 5.21623 19.4567 6.45378C19.2132 6.86968 19.0509 7.316 18.8886 7.76233C18.6249 8.49269 18.3814 9.23318 18.3003 10.0041C18.1988 11.0286 18.3814 12.1242 18.0974 13.0777C18.6452 13.3719 19.2031 13.7066 19.6494 14.1326C19.8421 14.0312 20.0653 13.9602 20.2783 13.9095C20.5928 13.8385 20.9275 13.8385 21.2521 13.8892C21.9419 12.5705 22.0433 10.9069 22.7635 9.55779C23.2809 8.59412 24.1228 7.81305 25.1271 7.37687C25.1879 7.60003 24.985 7.80291 24.8126 7.97535C24.3054 8.48254 24.0112 9.16218 23.7475 9.82152C23.2403 11.0794 22.7838 12.3473 22.3679 13.6457C22.3071 13.8385 22.2462 14.0312 22.1752 14.2138C22.6012 14.4572 22.9664 14.8021 23.1592 15.2282C23.3417 15.005 23.6359 14.9239 23.9199 14.863C24.3764 14.7616 24.8836 14.7007 25.4212 14.6804C25.4415 13.1588 25.4922 11.6474 25.5632 10.136C25.6444 8.40139 26.0197 6.2509 27.308 5.87558C28.0079 5.67271 28.7281 6.12918 29.2556 6.76824C30.5337 8.34053 30.8583 10.8258 31.0206 13.1183C31.3046 17.3178 31.2742 21.5478 30.9293 25.7372C30.767 27.7254 30.483 29.8353 29.4483 31.296C28.7484 32.2799 27.4906 32.8175 26.7298 31.9249L26.7906 32.2089C26.1719 31.0525 26.0197 29.5918 25.898 28.192C25.7661 26.6095 25.6647 25.0271 25.5835 23.4447C25.1372 23.4447 24.6909 23.3939 24.2547 23.3128C24.2547 23.3128 24.2445 23.3128 24.2344 23.3229C23.2606 23.9823 22.0535 24.1953 20.9478 24.6112C20.1667 24.9054 19.4364 25.3111 18.7365 25.7473C18.1278 26.1328 17.5192 26.5487 17.0729 27.1167C16.7483 27.5225 16.5251 27.9992 16.3121 28.476C16.0585 29.0339 15.8353 29.602 15.6223 30.17C15.7339 29.1049 16.0281 28.05 16.4947 27.0863C16.6874 26.6907 16.9004 26.3052 17.2149 25.9908C17.4685 25.7372 17.7728 25.5343 18.0771 25.3416C18.7567 24.9054 19.4465 24.459 20.1972 24.1446C21.171 23.7388 22.2564 23.536 23.149 22.978C22.8548 22.8665 22.5607 22.7549 22.2665 22.6332C22.1549 22.5824 22.0332 22.5317 21.9622 22.4404C21.9216 22.3897 21.9013 22.3288 21.8912 22.268C21.7897 22.3491 21.6579 22.3694 21.5361 22.3796C20.6029 22.481 19.6798 22.1361 18.7973 21.8014C18.7263 21.7709 18.6553 21.7506 18.5944 21.7202C17.8235 22.3288 16.8091 22.5723 15.8658 22.8766C14.6384 23.2722 13.4312 23.8403 12.569 24.8039C11.7879 25.6763 11.3619 26.7921 10.9561 27.8877C11.0982 26.5588 11.2808 25.159 12.1328 24.1243C12.7719 23.3432 13.7254 22.8868 14.6992 22.6129C15.0745 22.5114 15.4499 22.4303 15.8252 22.3187C16.5048 22.1158 16.9714 21.9332 17.5395 21.5173" fill="#E2D2BF"/>
<path d="M76.0878 16.2121C75.5806 16.5672 74.9719 16.8208 74.3532 16.77C73.7344 16.7092 73.1359 16.2831 73.004 15.6745C74.1401 15.6035 75.2864 15.5325 76.4225 15.4615C76.4124 15.0963 76.3718 14.7413 76.3211 14.3761C76.2602 13.9703 76.1588 13.5443 75.8747 13.24C75.4893 12.8342 74.8705 12.7632 74.3126 12.7429C73.7445 12.7328 73.1663 12.7429 72.649 12.9762C72.5881 13.0067 72.5171 13.0371 72.4461 13.0371C72.3751 13.0371 72.2635 12.9762 72.1824 12.9255C71.2999 12.3473 70.0928 12.2966 69.1697 12.8038C69.0885 12.8444 69.0074 12.8951 68.9567 12.9762C68.9161 13.0473 68.9059 13.1385 68.8958 13.2197C68.8755 13.4936 68.8654 13.7573 68.8654 14.0312C69.4436 13.9298 70.0319 13.8892 70.6202 13.8993C70.8028 13.8993 70.9854 13.9095 71.1477 13.9805C71.31 14.0515 71.452 14.2036 71.4622 14.3862L71.4317 14.437C71.1376 14.4572 70.8434 14.4877 70.5594 14.508C69.9 14.5587 69.19 14.6398 68.6828 15.076C68.1249 15.5629 68.0031 16.486 68.4393 17.0946C68.8349 17.6525 69.5856 17.8554 70.2652 17.7844C70.9448 17.7134 71.5738 17.3989 72.1824 17.0845C72.365 17.1758 72.5577 17.2671 72.7504 17.3584C73.3185 17.612 73.917 17.8351 74.5459 17.8656C75.114 17.896 75.682 17.7641 76.179 17.5004C76.2501 17.4598 76.3211 17.4192 76.3616 17.3482C76.3921 17.2874 76.3921 17.2265 76.3921 17.1555C76.3921 16.8613 76.3921 16.5773 76.3921 16.2831C76.3921 16.2324 76.3921 16.1817 76.3616 16.1513C76.3008 16.0904 76.1892 16.1411 76.1182 16.1918L76.0878 16.2121ZM70.8941 16.5976C70.6608 16.6483 70.3971 16.6382 70.1942 16.5266C69.9812 16.4049 69.8392 16.1614 69.8797 15.9281C69.9203 15.7049 70.113 15.5325 70.3261 15.4513C70.5391 15.3702 70.7724 15.3702 70.9956 15.36C71.1173 15.36 71.2289 15.36 71.3506 15.3905L71.4723 15.4412C71.5028 15.7455 71.5433 16.0397 71.5738 16.3338C71.3607 16.4454 71.1376 16.557 70.9043 16.6077L70.8941 16.5976ZM73.5518 13.6559C73.633 13.6356 73.704 13.6153 73.7851 13.6153C74.343 13.5849 74.8806 14.0109 74.9922 14.5485C74.9922 14.5688 74.9922 14.5993 74.9922 14.6297C74.9719 14.6601 74.9314 14.6601 74.9009 14.6601C74.7589 14.6601 74.6068 14.6601 74.4546 14.6601C73.9576 14.6601 73.4707 14.6601 72.9837 14.6094C72.9127 14.2138 73.1663 13.7776 73.5619 13.6559H73.5518Z" fill="#E2D2BF"/>
<path d="M55.4852 23.7803V23.8019C55.4743 23.8019 55.4635 23.7803 55.4852 23.7803Z" fill="#E2D2BF"/>
<path d="M56.8945 24.7939L56.9757 24.7432H56.996C56.9655 24.7635 56.925 24.7736 56.8945 24.7939Z" fill="#E2D2BF"/>
<path d="M56.9331 23.6178C56.8824 23.2831 56.8216 22.9281 56.639 22.644C56.4158 22.289 56.0303 22.0658 55.6246 21.9745C55.2188 21.8832 54.7928 21.9035 54.387 21.9542C53.7886 22.0354 53.1495 22.1876 52.7438 22.6339C52.5814 22.8063 52.4597 23.0193 52.3583 23.2324C52.1453 23.6584 51.9931 24.125 51.9627 24.6018C51.9322 25.0785 52.0235 25.5654 52.267 25.9712C52.6119 26.5291 53.2205 26.8841 53.8596 27.016C54.4986 27.1479 55.1681 27.1073 55.8072 27.0059C56.1014 26.9551 56.4158 26.8943 56.6593 26.7218C56.71 26.6813 56.7607 26.6407 56.781 26.5798C56.8013 26.5291 56.8013 26.4682 56.8013 26.4175C56.8013 26.0929 56.8114 25.7683 56.8216 25.4437C56.2129 25.7785 55.4927 25.9306 54.7928 25.8596C54.4682 25.8292 54.1436 25.748 53.8799 25.5553C53.6161 25.3626 53.4335 25.0481 53.4741 24.7235C54.6305 24.8655 55.8072 24.8655 56.9636 24.7235L57.0042 24.6931C57.0244 24.3279 56.9737 23.9627 56.9129 23.5975L56.9331 23.6178ZM54.4986 23.8613C54.3769 23.8613 54.2653 23.8511 54.1436 23.841C53.9407 23.841 53.748 23.8207 53.5451 23.8106C53.5958 23.628 53.6567 23.4454 53.7784 23.3034C53.9103 23.1614 54.0929 23.0802 54.2856 23.0396C54.5392 22.9991 54.8029 23.0396 55.0261 23.1614C55.2493 23.2831 55.4217 23.5062 55.4826 23.7497C55.4826 23.7598 55.4826 23.7801 55.4826 23.7903L55.5434 23.9019C55.1884 23.8816 54.8435 23.8714 54.4885 23.8511L54.4986 23.8613Z" fill="#E2D2BF"/>
<path d="M41.7291 11.1918V12.3685C42.1856 12.4192 42.6319 12.4598 43.0884 12.48C43.0072 13.5046 42.9768 14.5291 42.9971 15.5536C42.9971 15.9087 42.9869 16.3347 42.6826 16.5274C42.3885 16.71 41.8508 16.497 41.5465 16.355C41.5161 16.8013 41.4958 17.2375 41.5465 17.6838C42.0841 17.9273 42.9058 17.9983 43.4536 17.7751C44.0013 17.552 44.4375 17.0853 44.6505 16.5376C44.8331 16.0507 44.8331 15.5232 44.8433 14.9957C44.8433 13.7987 44.8433 12.5916 44.8433 11.3947C44.8433 11.3439 44.8433 11.2729 44.8027 11.2425C44.7621 11.2019 44.7012 11.2121 44.6404 11.2222C43.6666 11.3642 42.6725 11.3541 41.7088 11.1816" fill="#E2D2BF"/>
<path d="M50.4025 13.4024C49.8953 12.6416 48.8403 12.3678 47.9578 12.5808L48.0085 12.5098C47.5723 12.5301 47.1767 12.7836 46.9028 13.1184C46.629 13.4531 46.4667 13.869 46.3449 14.2849C46.1015 15.1167 46.0203 16.0601 46.4464 16.8107C46.913 17.6324 47.9679 18.0584 48.8809 17.8454C49.804 17.6324 50.5445 16.8209 50.7271 15.8978C50.7778 15.6746 50.7879 15.4413 50.7981 15.2182C50.8183 14.5892 50.7575 13.9299 50.4025 13.4126V13.4024ZM49.5504 15.6645C49.4388 16.2021 49.0229 16.689 48.4853 16.7803C48.3838 16.8006 48.2824 16.8006 48.181 16.7803C47.8665 16.6992 47.6738 16.3746 47.5926 16.0601C47.4202 15.4616 47.481 14.8023 47.7448 14.2342C47.8361 14.0415 47.9477 13.869 48.11 13.7372C48.2723 13.6053 48.4853 13.5343 48.6881 13.5647L48.607 13.6256C48.8707 13.6459 49.0635 13.869 49.2055 14.1023C49.4895 14.569 49.6518 15.137 49.5504 15.6746V15.6645Z" fill="#E2D2BF"/>
<path d="M53.242 12.7741L51.832 12.7538C51.8523 14.387 51.8726 16.0201 51.8929 17.6533C52.3899 17.633 52.8971 17.6127 53.3942 17.6026C53.4043 16.507 53.384 15.4115 53.3232 14.316C53.9521 14.1638 54.6114 14.1537 55.2404 14.2754C55.1998 13.687 55.1592 13.1088 55.1085 12.5205C54.3781 12.5611 53.6681 12.8958 53.1609 13.4335C53.1609 13.2103 53.171 12.9871 53.1812 12.764" fill="#E2D2BF"/>
<path d="M60.697 10.9175C60.2405 10.9074 59.7739 10.9277 59.3276 10.9885C59.2667 10.9885 59.1957 11.0088 59.1653 11.0697C59.145 11.1001 59.145 11.1407 59.145 11.1813C59.1754 11.8 59.1957 12.429 59.2261 13.0477C58.7392 12.7536 58.1712 12.4594 57.6234 12.6014C57.3901 12.6623 57.1771 12.8043 56.9945 12.9564C56.1728 13.6665 55.8178 14.8229 55.9192 15.8981C55.9598 16.2633 56.0511 16.6386 56.254 16.943C56.5684 17.4197 57.1568 17.6936 57.7248 17.7037C58.303 17.7037 58.8609 17.4603 59.2971 17.085C59.3377 17.2676 59.3783 17.4501 59.4087 17.6226C59.8855 17.6429 60.3622 17.6733 60.839 17.6936C60.7883 15.4315 60.7477 13.1695 60.697 10.9175ZM59.216 16.2836C58.9522 16.4155 58.6784 16.5575 58.3842 16.5372C57.9581 16.5169 57.593 16.1517 57.4814 15.7358C57.3698 15.3199 57.4814 14.8736 57.6538 14.4882C57.7045 14.3766 57.7756 14.265 57.8567 14.1737C58.161 13.8491 58.6682 13.8389 59.1044 13.8694C59.1145 13.8998 59.0942 13.9302 59.0638 13.9302L59.1754 13.9607C59.216 14.7316 59.2261 15.5127 59.2058 16.2836H59.216Z" fill="#E2D2BF"/>
<path d="M63.8231 13.3217L63.8434 12.8247C63.3869 12.6928 62.9102 12.6523 62.4334 12.703C62.3928 12.703 62.3421 12.7131 62.3117 12.7435C62.2812 12.774 62.2813 12.8247 62.2813 12.8653C62.3117 14.4477 62.332 16.0301 62.3624 17.6227C62.8696 17.643 63.3768 17.6532 63.884 17.6734C63.813 16.5069 63.7724 15.3302 63.7623 14.1535C64.0666 14.1231 64.3607 14.113 64.665 14.1028C64.8071 14.1028 64.9592 14.1028 65.0809 14.1738C65.3244 14.3057 65.3751 14.6202 65.4055 14.9042C65.507 15.8171 65.578 16.7301 65.6389 17.643C66.1156 17.6734 66.5924 17.7039 67.059 17.7242C67.0387 16.6185 67.0083 15.5128 66.988 14.4071C66.988 14.0927 66.9778 13.7681 66.8865 13.4739C66.7952 13.1797 66.6127 12.8856 66.3286 12.7334C65.9939 12.561 65.5881 12.6117 65.223 12.703C64.7259 12.8247 64.2187 13.0276 63.8738 13.4029" fill="#E2D2BF"/>
<path d="M72.9932 14.6304L72.9727 14.5996C72.9727 14.5996 72.9829 14.5996 72.9932 14.5996V14.6201V14.6304Z" fill="#E2D2BF"/>
<path d="M77.5999 12.875C77.6304 14.4371 77.6608 15.9993 77.6912 17.5614L79.1824 17.6527L79.2026 14.6299C79.2026 14.5588 79.2026 14.4878 79.2331 14.4168C79.2838 14.3154 79.3954 14.2647 79.507 14.2241C80.004 14.0618 80.5619 14.0719 81.0488 14.2444C81.0691 13.7271 81.059 13.2097 81.0184 12.6924C80.3489 12.7735 79.5983 12.9054 79.2026 13.4532C79.2331 13.2097 79.2128 12.8953 78.9896 12.8141C78.9288 12.7938 78.8679 12.7938 78.807 12.7938C78.381 12.7938 77.9651 12.8141 77.5391 12.8243" fill="#E2D2BF"/>
<path d="M82.2627 11.4853L82.3032 12.6417L81.7961 12.733C81.7859 13.0474 81.7758 13.3619 81.7656 13.6764L82.1308 13.6967C82.1815 13.6967 82.2322 13.6967 82.2627 13.7372C82.2931 13.7677 82.2931 13.8184 82.2931 13.8691C82.283 14.782 82.3438 15.7051 82.4858 16.6079C82.5366 16.9122 82.6076 17.2571 82.851 17.4397C83.0235 17.5716 83.2568 17.6122 83.4698 17.6325C83.7741 17.6629 84.0784 17.673 84.3827 17.6629C84.5045 17.6629 84.6566 17.6426 84.7276 17.5412C84.7682 17.4803 84.7783 17.389 84.7783 17.3078C84.7783 17.0543 84.7783 16.8108 84.7885 16.5572C84.5146 16.5775 84.2001 16.5775 83.9973 16.3949C83.7842 16.2123 83.764 15.8979 83.7538 15.6138C83.7335 15.0864 83.7132 14.5487 83.7031 14.0213C83.7031 13.9198 83.7031 13.8082 83.7842 13.7474C83.835 13.7169 83.906 13.7169 83.9668 13.7169C84.3117 13.7169 84.6566 13.7372 84.9914 13.7474C85.0116 13.4228 85.0015 13.0982 84.9711 12.7837C84.9711 12.733 84.9609 12.6823 84.9203 12.6518C84.8798 12.6113 84.8189 12.6113 84.7682 12.6214C84.4233 12.6417 84.0784 12.6518 83.7335 12.6721C83.6929 12.2562 83.6625 11.8403 83.6219 11.4244C83.1452 11.3534 82.6481 11.3636 82.1714 11.4447" fill="#E2D2BF"/>
<path d="M46.6492 22.3195C46.6289 22.1166 46.5985 21.9137 46.5275 21.7311C46.3246 21.2239 45.8276 20.8689 45.3001 20.7167C44.7726 20.5544 44.2147 20.5646 43.6669 20.5646C42.9569 20.5646 42.2569 20.5747 41.5469 20.5849V20.6356C41.5875 22.7455 41.5773 24.8453 41.5469 26.945C42.0642 27.0059 42.5815 27.0262 43.0989 26.9958C42.9873 26.306 42.967 25.6061 43.0279 24.9163C44.1944 25.2206 45.503 24.8554 46.3449 23.9932C46.4362 23.9019 46.5173 23.8005 46.5782 23.6889C46.6492 23.5469 46.6695 23.3846 46.6796 23.2324C46.6999 22.9281 46.6999 22.6136 46.6695 22.3093L46.6492 22.3195ZM44.9856 22.8672C44.9653 23.0194 44.9045 23.1715 44.7929 23.2831C44.6813 23.3846 44.5292 23.4454 44.377 23.486C43.9712 23.5976 43.5351 23.6483 43.1192 23.6382C43.0989 23.0397 43.0786 22.431 43.0786 21.8326L43.1395 21.863C43.4336 21.7818 43.7379 21.7311 44.0321 21.7717C44.3263 21.8123 44.6205 21.9543 44.803 22.1876C44.9552 22.3803 45.0161 22.6339 44.9856 22.8774V22.8672Z" fill="#E2D2BF"/>
<path d="M49.1624 22.1269C48.7566 22.0863 48.3407 22.0761 47.9248 22.0863C47.8843 22.0863 47.8437 22.0863 47.8234 22.1269C47.8133 22.1472 47.8133 22.1674 47.8133 22.1877C47.8133 23.76 47.793 25.3425 47.793 26.9147C48.2697 26.8945 48.7465 26.9147 49.2232 26.9655C49.1624 25.9409 49.132 24.9164 49.1522 23.8817C49.1522 23.831 49.1522 23.7905 49.1827 23.7499C49.2131 23.7093 49.2537 23.689 49.3044 23.6687C49.8927 23.4253 50.5724 23.3847 51.181 23.5571C51.181 23.0601 51.1709 22.5529 51.1607 22.0559C50.4608 22.0254 49.7609 22.3196 49.2943 22.8471L49.2232 22.1573" fill="#E2D2BF"/>
<path d="M55.4852 23.8019C55.4743 23.8019 55.4635 23.7803 55.4852 23.7803V23.8019Z" fill="#E2D2BF"/>
<path d="M62.0687 22.3088C62.089 22.6942 62.089 23.0898 62.0687 23.4753C61.5818 23.2927 61.0847 23.1507 60.5877 23.0493C60.3544 22.9985 60.1008 22.958 59.8979 23.0797C59.7052 23.1913 59.6037 23.4347 59.6646 23.6477C59.7255 23.8608 59.9283 24.0231 60.1515 24.0231C60.5775 24.0231 61.0036 24.0332 61.3992 24.1854C61.7948 24.3375 62.1498 24.6621 62.2208 25.078C62.2715 25.3621 62.1803 25.6562 62.0281 25.8997C61.7745 26.3156 61.3687 26.6402 60.9021 26.772C60.5065 26.8836 60.0805 26.8735 59.6747 26.843C59.1878 26.8126 58.6908 26.772 58.2445 26.5793C58.1937 26.2344 58.1836 25.8895 58.1836 25.5446C58.8531 25.8084 59.5936 25.9098 60.3138 25.8287C60.4964 25.8084 60.7195 25.7475 60.75 25.5649C60.7804 25.3823 60.5978 25.2403 60.4355 25.1693C60.2124 25.0679 59.9689 24.9969 59.7153 24.9766C59.3501 24.936 58.9444 24.9766 58.6502 24.7433C58.4575 24.5911 58.3459 24.3477 58.3155 24.1042C58.285 23.8608 58.3358 23.6072 58.3865 23.3637C58.427 23.171 58.4879 22.9681 58.5995 22.7957C58.7009 22.6537 58.8429 22.5421 58.985 22.4508C59.8776 21.8726 61.0746 21.8016 62.0281 22.2682C62.0484 22.2783 62.0687 22.3189 62.0484 22.329C62.0281 22.3392 61.9977 22.3088 62.018 22.2986" fill="#E2D2BF"/>
<path d="M66.9972 22.218C67.0377 22.5426 67.0377 22.8773 67.0175 23.2121C66.6624 23.1106 66.2973 23.0092 65.9422 22.9077C65.6886 22.8367 65.4249 22.7657 65.1611 22.8063C64.8974 22.8469 64.6438 23.0396 64.6235 23.3034C64.6032 23.5569 64.8061 23.7903 65.0394 23.8815C65.2727 23.9728 65.5365 23.9728 65.8002 23.9728C66.0639 23.9728 66.3277 23.983 66.5508 24.1047C66.9059 24.2974 67.0783 24.7438 67.058 25.1495C67.0378 25.6263 66.8044 26.0929 66.4291 26.3972C66.135 26.6305 65.7698 26.7522 65.4046 26.8334C64.7554 26.9653 64.0656 26.9551 63.4367 26.7218C63.2845 26.661 63.1121 26.5697 63.0715 26.4074C63.0512 26.3364 63.0715 26.2653 63.0715 26.1943C63.1019 25.9509 63.1425 25.6973 63.173 25.4538C63.7512 25.6871 64.4004 25.7784 65.0191 25.6973C65.1611 25.677 65.3133 25.6567 65.4249 25.5654C65.5365 25.4741 65.6075 25.322 65.5466 25.1901C65.4756 25.0379 65.293 24.9974 65.1307 24.9771C64.9481 24.9466 64.7655 24.9264 64.5829 24.8959C64.3294 24.8554 64.0758 24.8148 63.8526 24.7133C63.6294 24.6119 63.4164 24.4293 63.3251 24.196C63.2642 24.0134 63.2744 23.8105 63.3048 23.6178C63.3353 23.4048 63.3758 23.2019 63.4773 23.0092C63.5787 22.8164 63.7207 22.6541 63.883 22.502C64.7148 21.7615 66.0234 21.6093 67.0073 22.1368" fill="#E2D2BF"/>
</g>
<defs>
<clipPath id="clip0_508_145">
<rect width="85" height="32" fill="white"/>
</clipPath>
</defs>
</svg>
