<svg width="1934" height="768" viewBox="0 0 1934 768" fill="none" xmlns="http://www.w3.org/2000/svg">
<path d="M818.06 216.48C827.538 216.48 838.323 216.48 849.273 216.48C852.214 216.48 855.156 216.48 858.261 216.48C862.019 216.48 863 217.441 863 220.963C863 228.007 863 234.891 863 241.935C863 246.418 861.856 247.058 857.117 247.378C851.56 247.698 846.004 248.019 840.448 248.339C837.67 248.499 837.016 249.139 836.853 251.861C836.853 253.462 836.853 254.903 836.853 256.504C836.853 266.589 836.853 276.675 836.853 286.761C836.853 297.647 836.199 308.534 834.565 319.26C832.604 331.907 827.211 342.954 818.06 352.079C813.647 356.562 808.908 360.564 802.698 362.645C798.286 364.086 793.873 364.726 789.298 364.887C783.578 365.207 777.858 364.887 772.138 363.446C765.602 361.845 760.209 358.803 755.47 354C749.587 348.077 745.174 341.193 741.252 334.149C739.945 331.747 739.128 329.186 738.311 326.624C737.657 324.703 737.984 322.622 739.781 321.982C740.598 321.821 741.906 321.982 742.56 321.982C751.711 321.501 760.699 321.982 769.851 321.501C771.485 321.501 772.955 321.982 774.099 323.102C775.08 324.063 776.061 325.023 777.205 325.824C783.251 330.466 790.768 329.666 795.834 323.903C797.469 321.982 798.776 319.74 799.429 317.339C800.247 314.297 800.9 311.255 800.9 308.214C800.9 290.924 801.391 273.633 800.574 256.343C800.247 248.979 799.43 248.019 791.912 247.698C787.827 247.698 783.578 247.698 779.492 247.698C777.858 247.698 776.388 247.698 774.753 247.378C772.139 247.058 771.158 246.258 770.995 243.696C770.668 235.691 770.341 227.847 770.341 219.842C770.341 217.281 771.322 216.48 773.936 216.16C776.551 216 779.166 216 781.617 216C793.383 216 804.986 216.32 818.223 216.48H818.06Z" fill="#F4E8D9"/>
<path d="M972.732 290.65C972.732 295.938 972.732 301.066 972.732 306.353C972.409 318.852 969.183 330.709 962.894 341.285C954.346 355.706 941.928 364.519 924.349 365C919.511 365 914.512 364.84 909.835 363.718C903.061 362.116 896.933 359.392 891.933 354.424C883.224 345.772 876.612 335.837 873.064 323.979C871.129 317.57 870.161 311.16 870 304.43C870 295.938 870 287.285 870 278.793C870 264.211 873.709 250.751 881.45 238.413C888.546 227.357 898.062 219.185 911.447 216.941C929.671 213.897 945.476 218.063 958.378 232.004C963.861 237.932 966.764 244.983 969.022 252.514C972.248 263.25 973.377 274.146 972.893 285.362C972.893 287.125 972.893 288.888 972.893 290.65H972.732ZM937.896 292.733C937.896 288.086 937.896 283.439 937.896 278.793C937.896 275.748 937.413 272.543 936.929 269.499C936.122 264.211 934.832 259.244 931.123 255.078C925.639 248.828 918.382 248.828 912.899 254.917C909.189 259.084 907.738 264.051 906.932 269.339C905.158 283.6 905.158 298.021 906.609 312.442C906.932 315.968 908.061 319.333 909.673 322.377C912.254 327.184 915.963 331.03 921.93 330.87C927.897 330.87 931.607 327.024 934.026 322.057C935.477 319.172 936.284 315.968 936.929 312.603C937.896 306.033 937.735 299.463 937.735 292.893L937.896 292.733Z" fill="#F4E8D9"/>
<path d="M993.697 288.91C992.415 276.409 993.376 260.173 993.056 244.101C992.896 236.632 993.056 229.164 993.857 221.696C994.338 217.637 995.14 216.825 998.986 216.663C1005.08 216.663 1011 216.014 1017.09 216.501C1023.02 216.988 1029.11 216.176 1035.04 216.014C1039.85 216.014 1044.82 216.014 1049.63 216.014C1066.13 215.527 1085.05 228.028 1089.85 246.211C1092.74 256.602 1092.9 267.155 1091.14 277.707C1089.85 284.851 1087.45 291.345 1083.92 297.514C1081.52 301.898 1079.44 306.281 1076.87 310.502C1075.27 313.262 1075.43 315.373 1076.87 318.133C1083.12 330.309 1089.21 342.648 1095.46 354.987C1096.9 357.909 1098.35 360.994 1099.63 364.078C1100.59 366.351 1099.63 367.488 1097.39 367.813C1096.58 367.813 1095.78 367.813 1094.98 367.813C1086.01 368.137 1077.19 367.975 1068.22 367.813C1064.05 367.813 1061.81 366.189 1060.53 362.293C1056.36 349.954 1050.43 338.427 1044.5 326.9C1044.02 326.088 1043.54 325.114 1043.22 324.302C1041.94 321.38 1039.85 320.081 1036.81 320.406C1034.24 320.568 1031.68 320.406 1029.27 320.568C1027.51 320.568 1026.39 321.867 1026.39 323.653C1026.39 325.276 1026.23 326.738 1026.23 328.361C1026.23 338.589 1026.23 348.817 1026.23 359.046C1026.23 360.669 1026.23 362.13 1026.23 363.754C1026.23 366.514 1025.43 367.163 1022.86 367.488C1022.7 367.488 1022.54 367.488 1022.22 367.488C1014.53 367.813 1006.68 368.137 998.986 367.488C995.3 367.325 994.659 366.676 994.018 362.942C993.377 359.208 993.377 355.474 993.377 351.74C993.537 341.674 993.697 331.77 993.857 321.705C993.857 311.801 993.857 302.06 993.857 288.585L993.697 288.91ZM1027.35 266.83C1027.35 269.59 1027.03 273.324 1027.99 277.058C1028.31 278.681 1029.27 279.98 1031.2 279.98C1034.72 279.98 1038.25 279.98 1041.61 279.818C1044.82 279.493 1047.7 278.357 1049.63 275.597C1053.63 269.265 1051.71 256.602 1041.45 254.329C1038.09 253.517 1034.56 253.517 1031.04 254.004C1028.31 254.329 1027.67 255.141 1027.51 257.738C1027.51 260.498 1027.51 263.258 1027.51 266.992L1027.35 266.83Z" fill="#F4E8D9"/>
<path d="M1115.16 292.322C1115.16 270.567 1115.16 248.974 1115.16 227.219C1115.16 220.289 1115.49 220.128 1122.45 219.806C1138.31 219.161 1154.18 219.161 1170.04 219C1175.71 219 1180.89 220.289 1186.23 221.74C1187.53 222.062 1188.82 222.706 1189.95 223.512C1197.56 229.313 1204.04 235.921 1206.63 245.589C1209.22 255.258 1211 264.927 1211 275.079C1211 286.199 1211 297.318 1211 308.437C1211 318.267 1209.22 327.775 1206.95 337.283C1204.52 347.435 1198.05 354.687 1189.95 360.488C1185.75 363.55 1180.56 364.194 1175.38 364.839C1173.6 365 1171.82 365 1170.04 365C1154.18 365 1138.31 365 1122.28 364.678C1121.31 364.678 1120.34 364.678 1119.37 364.678C1115.97 364.194 1115.16 363.227 1115 359.682C1115 358.715 1115 357.748 1115 356.781C1115 335.349 1115 313.755 1115 292.322H1115.16ZM1147.38 291.033C1147.38 301.185 1147.38 311.338 1147.38 321.49C1147.38 323.102 1147.38 324.552 1147.7 326.163C1148.03 328.419 1148.83 329.225 1151.26 329.386C1154.82 329.547 1158.39 329.547 1161.79 329.547C1168.1 329.547 1173.6 325.519 1174.9 319.234C1175.71 315.85 1176.52 312.466 1176.52 308.921C1176.52 297.479 1176.52 285.876 1176.52 274.435C1176.52 270.89 1175.71 267.506 1174.41 264.121C1172.47 259.287 1169.07 256.064 1164.05 254.614C1160.81 253.647 1157.41 253.486 1154.18 253.647C1148.35 253.808 1147.54 254.614 1147.54 260.737C1147.54 270.89 1147.54 281.042 1147.54 291.194L1147.38 291.033Z" fill="#F4E8D9"/>
<path d="M1325 291.287C1325 305.24 1325 319.354 1324.84 333.308C1324.84 340.846 1324.35 348.384 1324.19 356.082C1324.03 360.252 1323.38 360.894 1319.49 361.215C1311.39 362.017 1303.45 362.337 1295.35 361.535C1291.3 361.215 1288.87 359.45 1287.57 355.762C1284.17 345.978 1279.8 336.676 1275.75 327.213C1273.32 321.279 1270.56 315.505 1267.97 309.571C1267.65 308.769 1267 307.806 1266.51 307.004C1266.35 306.684 1265.86 306.523 1265.54 306.684C1265.22 306.684 1264.73 307.004 1264.57 307.325C1263.76 308.769 1264.08 310.372 1264.08 311.976C1264.08 325.609 1263.76 339.242 1263.76 352.875C1263.76 359.932 1263.76 359.771 1256.79 360.734C1250.15 361.535 1243.51 361.215 1236.7 361.054C1235.73 361.054 1234.76 361.054 1233.79 360.734C1231.19 360.092 1230.38 359.29 1230.22 356.884C1230.22 355.762 1230.22 354.479 1230.22 353.356C1230.22 342.45 1230.55 331.543 1229.9 320.637C1228.28 289.683 1229.41 258.889 1229.09 227.934C1229.09 227.132 1229.09 226.33 1229.09 225.528C1229.41 222.962 1230.22 222.16 1232.81 222C1233.79 222 1234.76 222 1235.73 222C1243.83 222 1251.77 222.16 1259.87 222C1264.24 222 1266.84 223.604 1268.46 227.613C1273.97 240.765 1279.96 253.596 1284.66 267.068C1285.31 268.833 1285.79 270.757 1287.09 272.361C1287.25 272.682 1287.74 272.842 1288.06 272.682C1288.38 272.682 1288.87 272.201 1288.87 272.04C1289.03 270.918 1289.19 269.795 1289.19 268.512C1288.71 255.039 1290.49 241.727 1290 228.255C1290 227.453 1290 226.651 1290.17 226.01C1290.49 224.566 1291.3 223.443 1292.92 223.443C1295.03 223.283 1297.3 223.283 1299.4 223.283C1306.21 223.283 1313.17 223.283 1319.98 223.283C1324.03 223.283 1324.68 224.085 1324.84 228.095C1324.84 236.595 1325 245.256 1325 253.756C1325 266.427 1325 279.097 1325 291.607V291.287Z" fill="#F4E8D9"/>
<path d="M1521.7 288.91C1520.41 276.409 1521.38 260.173 1521.06 244.101C1520.9 236.632 1521.06 229.164 1521.86 221.696C1522.34 217.637 1523.14 216.825 1526.99 216.663C1533.08 216.663 1539 216.014 1545.09 216.501C1551.02 216.988 1557.11 216.176 1563.04 216.014C1567.85 216.014 1572.82 216.014 1577.63 216.014C1594.13 215.527 1613.04 228.028 1617.85 246.211C1620.74 256.602 1620.9 267.155 1619.13 277.707C1617.85 284.851 1615.45 291.345 1611.92 297.514C1609.52 301.898 1607.44 306.281 1604.87 310.502C1603.27 313.262 1603.43 315.373 1604.87 318.133C1611.12 330.309 1617.21 342.648 1623.46 354.987C1624.9 357.909 1626.35 360.994 1627.63 364.078C1628.59 366.351 1627.63 367.488 1625.38 367.813C1624.58 367.813 1623.78 367.813 1622.98 367.813C1614.01 368.137 1605.19 367.975 1596.22 367.813C1592.05 367.813 1589.81 366.189 1588.53 362.293C1584.36 349.954 1578.43 338.427 1572.5 326.9C1572.02 326.088 1571.54 325.114 1571.22 324.302C1569.93 321.38 1567.85 320.081 1564.81 320.406C1562.24 320.568 1559.68 320.406 1557.27 320.568C1555.51 320.568 1554.39 321.867 1554.39 323.653C1554.39 325.276 1554.23 326.738 1554.23 328.361C1554.23 338.589 1554.23 348.817 1554.23 359.046C1554.23 360.669 1554.23 362.13 1554.23 363.754C1554.23 366.514 1553.43 367.163 1550.86 367.488C1550.7 367.488 1550.54 367.488 1550.22 367.488C1542.53 367.813 1534.68 368.137 1526.99 367.488C1523.3 367.325 1522.66 366.676 1522.02 362.942C1521.38 359.208 1521.38 355.474 1521.38 351.74C1521.54 341.674 1521.7 331.77 1521.86 321.705C1521.86 311.801 1521.86 302.06 1521.86 288.585L1521.7 288.91ZM1555.35 266.83C1555.35 269.59 1555.03 273.324 1555.99 277.058C1556.31 278.681 1557.27 279.98 1559.2 279.98C1562.72 279.98 1566.25 279.98 1569.61 279.818C1572.82 279.493 1575.7 278.357 1577.63 275.597C1581.63 269.265 1579.71 256.602 1569.45 254.329C1566.09 253.517 1562.56 253.517 1559.04 254.004C1556.31 254.329 1555.67 255.141 1555.51 257.738C1555.51 260.498 1555.51 263.258 1555.51 266.992L1555.35 266.83Z" fill="#F4E8D9"/>
<path d="M1663.38 309.981C1663.38 297.167 1663.38 284.353 1663.06 271.538C1663.06 266.092 1662.57 260.646 1662.25 255.2C1662.09 252.157 1661.27 251.356 1658.19 251.196C1653.32 251.036 1648.29 251.196 1643.42 251.036C1634.65 251.036 1634.65 250.875 1634.49 242.226C1634.49 236.459 1634.16 230.533 1634 224.766C1634 223.965 1634 223.165 1634 222.364C1634.16 220.121 1634.97 219.16 1637.25 219C1638.55 219 1640.01 219 1641.31 219C1653.32 219 1665.33 219 1677.35 219.16C1689.52 219.16 1701.7 219.16 1714.03 219.16C1717.44 219.16 1720.69 219.481 1724.1 219.801C1726.7 220.121 1727.51 220.922 1727.67 223.645C1727.83 231.334 1728.32 239.182 1727.67 246.871C1727.35 249.754 1726.54 250.555 1723.45 250.715C1718.09 250.875 1712.9 251.036 1707.54 251.196C1706.4 251.196 1705.11 251.196 1703.97 251.196C1699.59 251.516 1698.77 252.157 1698.77 256.482C1698.61 261.447 1698.61 266.573 1698.77 271.699C1699.42 283.231 1699.42 294.604 1698.77 306.137C1698.77 308.86 1698.77 311.583 1698.77 314.306C1699.1 319.111 1699.26 324.077 1698.77 328.882C1698.29 336.731 1698.29 344.419 1698.77 352.108C1698.77 354.19 1698.94 356.433 1698.77 358.515C1698.61 361.719 1697.64 362.68 1694.39 362.84C1692.77 362.84 1691.31 362.84 1689.68 362.84C1683.35 362.84 1677.02 362.84 1670.85 363C1669.72 363 1668.42 363 1667.28 363C1664.68 362.68 1663.71 361.719 1663.55 359.316C1663.38 357.554 1663.38 355.792 1663.38 354.03C1663.38 339.294 1663.38 324.557 1663.38 309.661V309.981Z" fill="#F4E8D9"/>
<path d="M738.489 502.593C738.489 495.478 738.489 488.363 738.326 481.248C738.326 472.552 738 463.698 738 455.002C738 448.678 738.326 442.353 738.489 436.029C738.652 431.76 739.794 430.653 744.197 430.337C745.175 430.337 746.317 430.337 747.296 430.337C761.974 430.337 776.651 430.337 791.329 430.021C803.071 429.704 813.183 433.025 822.152 440.14C826.556 443.618 829.818 447.729 832.101 452.472C835.036 458.322 836.993 464.647 836.993 471.287C836.993 477.612 837.157 483.778 835.852 490.102C834.058 498.166 830.633 505.597 826.23 512.554C824.273 515.716 821.337 518.088 818.075 519.985C810.247 524.728 801.767 527.258 792.797 528.523C787.252 529.313 781.544 529.946 775.836 530.104C772.248 530.104 771.432 531.053 771.106 534.531C770.943 536.27 770.78 538.168 770.78 540.065C770.617 549.868 770.617 559.67 771.27 569.315C771.27 570.106 771.433 570.896 771.27 571.687C771.27 573.742 770.617 574.691 768.497 575.165C766.866 575.481 765.235 575.798 763.441 575.798C757.407 575.798 751.21 576.114 745.176 575.956C739.957 575.956 738.489 574.375 738.489 569.157C738.489 558.564 738.489 547.97 738.489 537.377C738.489 525.677 738.489 514.135 738.489 502.593ZM772.085 477.612C772.085 479.193 772.085 480.616 772.248 482.197C772.248 484.885 771.759 488.679 774.205 490.418C777.467 492.79 781.87 491.367 785.784 491.209C787.415 491.209 789.046 490.577 790.514 489.944C793.123 488.837 794.917 486.94 795.732 484.252C796.874 480.141 796.711 476.189 794.428 472.394C792.471 469.074 789.535 466.702 785.621 466.228C782.359 465.911 778.934 466.07 775.673 466.228C773.39 466.228 772.411 467.334 772.248 469.706C772.085 472.394 772.085 474.924 772.248 477.612H772.085Z" fill="#F4E8D9"/>
<path d="M851.704 499.91C850.41 487.409 851.38 471.173 851.056 455.101C850.895 447.632 851.056 440.164 851.865 432.696C852.35 428.637 853.159 427.825 857.041 427.663C863.188 427.663 869.173 427.014 875.32 427.501C881.305 427.988 887.452 427.176 893.437 427.014C898.29 427.014 903.304 427.014 908.157 427.014C924.818 426.527 943.906 439.028 948.758 457.211C951.67 467.602 951.831 478.155 950.052 488.707C948.758 495.851 946.332 502.345 942.773 508.514C940.347 512.898 938.244 517.281 935.656 521.502C934.038 524.262 934.2 526.373 935.656 529.133C941.964 541.309 948.111 553.648 954.42 565.987C955.876 568.909 957.331 571.994 958.625 575.078C959.596 577.351 958.625 578.488 956.361 578.813C955.552 578.813 954.743 578.813 953.934 578.813C944.876 579.137 935.979 578.975 926.921 578.813C922.715 578.813 920.451 577.189 919.157 573.293C914.951 560.954 908.966 549.427 902.981 537.9C902.495 537.088 902.01 536.114 901.687 535.302C900.393 532.38 898.29 531.081 895.216 531.406C892.628 531.568 890.04 531.406 887.614 531.568C885.834 531.568 884.702 532.867 884.702 534.653C884.702 536.276 884.54 537.738 884.54 539.361C884.54 549.589 884.54 559.817 884.54 570.046C884.54 571.669 884.54 573.13 884.54 574.754C884.54 577.514 883.732 578.163 881.143 578.488C880.982 578.488 880.82 578.488 880.496 578.488C872.732 578.813 864.806 579.137 857.041 578.488C853.321 578.325 852.674 577.676 852.027 573.942C851.38 570.208 851.38 566.474 851.38 562.74C851.542 552.674 851.703 542.77 851.865 532.705C851.865 522.801 851.865 513.06 851.865 499.585L851.704 499.91ZM885.673 477.83C885.673 480.59 885.349 484.324 886.32 488.058C886.643 489.681 887.614 490.98 889.555 490.98C893.113 490.98 896.672 490.98 900.069 490.818C903.304 490.493 906.216 489.357 908.157 486.597C912.201 480.265 910.26 467.602 899.907 465.329C896.51 464.517 892.952 464.517 889.393 465.004C886.643 465.329 885.996 466.14 885.834 468.738C885.834 471.498 885.834 474.258 885.834 477.992L885.673 477.83Z" fill="#F4E8D9"/>
<path d="M1021.43 427.444C1031.47 426.633 1041.51 427.119 1051.54 427.444C1055.92 427.444 1060.12 427.444 1064.5 427.444C1068.7 427.444 1069.35 428.093 1069.35 432.311C1069.35 441.884 1069.35 451.619 1069.35 461.192C1069.35 464.923 1068.54 465.735 1064.82 465.735C1054.94 465.735 1045.23 465.735 1035.35 465.897C1029.85 465.897 1024.35 465.897 1018.84 466.221C1017.55 466.221 1016.09 466.221 1014.79 466.546C1013.01 466.87 1012.04 468.006 1011.88 469.791C1011.56 474.658 1011.56 479.688 1011.88 484.555C1012.04 486.827 1013.01 487.638 1015.44 487.8C1019.81 487.963 1024.02 488.125 1028.39 488.125C1031.31 488.125 1034.22 488.125 1037.3 488.125C1040.21 488.125 1041.02 489.261 1041.34 492.181C1041.34 492.506 1041.34 492.992 1041.34 493.317C1041.34 500.78 1041.02 508.244 1040.86 515.707C1040.86 517.816 1039.73 518.952 1037.78 519.439C1036.81 519.601 1035.84 519.925 1034.87 520.088C1028.88 520.574 1022.73 521.061 1016.74 521.386C1015.93 521.386 1015.12 521.386 1014.31 521.386C1012.2 521.71 1011.39 522.197 1011.39 524.306C1011.39 529.011 1011.39 533.717 1011.39 538.422C1011.39 540.856 1012.36 541.667 1014.63 541.991C1015.93 542.153 1017.38 542.153 1018.68 542.153C1026.29 542.153 1033.9 541.991 1041.67 541.342C1049.76 540.856 1057.7 541.018 1065.79 541.018C1069.03 541.018 1070 541.991 1070 545.236C1070 554.809 1070 564.544 1070 574.116C1070 577.037 1069.03 577.848 1066.11 578.173C1065.31 578.173 1064.5 578.173 1063.69 578.173C1048.95 577.686 1034.22 579.795 1019.49 578.659C1005.4 577.686 991.157 578.173 977.072 577.199C973.51 577.037 973.024 576.55 972.862 572.981C972.7 565.679 972.215 558.378 972.538 551.077C973.024 539.882 971.729 528.687 972.053 517.492C972.7 496.237 972.538 474.983 972.862 453.728C972.862 447.563 972.862 441.56 972.862 435.394C972.862 434.096 972.862 432.636 972.862 431.338C973.024 429.391 973.834 428.742 975.938 428.417C976.586 428.417 977.071 428.417 977.719 428.417C985.328 428.093 992.937 427.282 1000.71 427.444C1007.35 427.444 1014.15 427.444 1020.78 427.444H1021.43Z" fill="#F4E8D9"/>
<path d="M1139.05 575.972C1127.05 576.288 1117.65 573.919 1109.22 568.551C1100.14 562.708 1092.03 555.76 1084.25 548.338C1083.76 547.865 1083.44 547.549 1083.12 547.075C1081.66 545.338 1081.66 544.233 1082.95 542.338C1083.93 541.075 1084.9 539.969 1086.03 538.864C1090.25 534.285 1094.63 529.863 1098.84 525.442C1099.49 524.81 1100.14 524.021 1100.95 523.389C1102.73 521.968 1103.71 521.81 1105.65 523.073C1107.6 524.336 1109.38 525.915 1111.33 527.179C1117.33 531.758 1123.16 536.653 1130.13 539.969C1132.4 541.075 1134.67 542.18 1137.43 542.18C1142.29 542.496 1145.05 538.548 1143.43 534.127C1142.78 532.232 1141.48 530.811 1140.19 529.389C1136.78 525.6 1132.73 522.599 1128.35 519.915C1120.24 515.178 1112.46 509.967 1105 504.44C1093.17 495.597 1087.82 483.754 1087.82 469.542C1087.82 461.173 1091.38 453.752 1097.38 447.909C1105.98 439.382 1116.03 433.539 1128.35 431.171C1143.43 428.17 1156.89 430.855 1168.88 440.171C1176.02 445.856 1183.15 451.699 1190.12 457.541C1190.61 457.857 1190.93 458.331 1191.42 458.805C1193.53 461.015 1193.53 462.121 1191.42 464.174C1187.85 467.805 1184.29 471.279 1180.56 474.753C1177.64 477.596 1174.72 480.438 1171.64 483.122C1168.72 485.807 1168.23 485.807 1165.15 483.438C1159.8 479.175 1154.29 475.227 1148.62 471.437C1146.02 469.7 1143.27 468.279 1140.35 467.016C1135.16 464.805 1131.11 468.437 1129.65 472.227C1128.84 474.437 1129.49 476.332 1130.78 478.227C1133.7 482.175 1137.27 485.491 1141.81 487.544C1150.56 491.334 1158.34 496.387 1165.8 501.913C1170.34 505.387 1174.23 509.493 1177.15 514.23C1183.8 524.81 1185.1 536.179 1182.02 548.023C1179.26 558.287 1171.64 564.919 1162.4 569.814C1159.8 571.235 1157.05 572.025 1154.29 573.13C1148.94 575.341 1143.27 575.972 1139.54 575.656L1139.05 575.972Z" fill="#F4E8D9"/>
<path d="M1254.02 575.972C1242.24 576.288 1233.01 573.919 1224.73 568.551C1215.81 562.708 1207.85 555.76 1200.21 548.338C1199.73 547.865 1199.41 547.549 1199.1 547.075C1197.66 545.338 1197.66 544.233 1198.94 542.338C1199.89 541.075 1200.85 539.969 1201.96 538.864C1206.1 534.285 1210.4 529.863 1214.54 525.442C1215.18 524.81 1215.81 524.021 1216.61 523.389C1218.36 521.968 1219.32 521.81 1221.23 523.073C1223.14 524.336 1224.89 525.915 1226.8 527.179C1232.69 531.758 1238.42 536.653 1245.27 539.969C1247.5 541.075 1249.72 542.18 1252.43 542.18C1257.21 542.496 1259.91 538.548 1258.32 534.127C1257.68 532.232 1256.41 530.811 1255.14 529.389C1251.79 525.6 1247.81 522.599 1243.52 519.915C1235.55 515.178 1227.91 509.967 1220.59 504.44C1208.97 495.597 1203.71 483.754 1203.71 469.542C1203.71 461.173 1207.21 453.752 1213.11 447.909C1221.54 439.382 1231.42 433.539 1243.52 431.171C1258.32 428.17 1271.54 430.855 1283.32 440.171C1290.32 445.856 1297.33 451.699 1304.17 457.541C1304.65 457.857 1304.97 458.331 1305.45 458.805C1307.52 461.015 1307.52 462.121 1305.45 464.174C1301.95 467.805 1298.44 471.279 1294.78 474.753C1291.91 477.596 1289.05 480.438 1286.02 483.122C1283.16 485.807 1282.68 485.807 1279.66 483.438C1274.4 479.175 1268.99 475.227 1263.42 471.437C1260.87 469.7 1258.16 468.279 1255.3 467.016C1250.2 464.805 1246.22 468.437 1244.79 472.227C1243.99 474.437 1244.63 476.332 1245.9 478.227C1248.77 482.175 1252.27 485.491 1256.73 487.544C1265.33 491.334 1272.97 496.387 1280.29 501.913C1284.75 505.387 1288.57 509.493 1291.44 514.23C1297.97 524.81 1299.24 536.179 1296.21 548.023C1293.51 558.287 1286.02 564.919 1276.95 569.814C1274.4 571.235 1271.7 572.025 1268.99 573.13C1263.73 575.341 1258.16 575.972 1254.5 575.656L1254.02 575.972Z" fill="#F4E8D9"/>
<path d="M1392.11 219.035C1396.97 218.711 1401.98 219.035 1407 219.035C1411.21 219.035 1411.86 219.844 1412.83 223.891C1418.33 247.198 1424 270.344 1429.18 293.652C1433.39 312.266 1437.11 331.204 1441.15 349.979C1441.8 352.731 1442.61 355.483 1443.26 358.234C1444.23 362.443 1443.26 363.899 1438.89 364.223C1432.41 364.709 1425.94 364.709 1419.47 364.223C1417.36 364.223 1415.26 363.737 1413.15 363.576C1410.4 363.576 1409.11 362.119 1408.62 359.529C1408.3 357.749 1407.65 355.806 1407.16 354.026C1406.68 352.083 1405.38 351.112 1403.44 351.112C1396 351.112 1388.55 350.95 1381.27 350.789C1379.16 350.789 1378.19 352.083 1377.71 353.864C1377.06 356.292 1376.57 358.72 1375.93 360.986C1375.28 363.252 1373.98 364.385 1371.39 364.547C1362.65 364.87 1353.91 366.003 1345.17 364.87C1340.8 364.223 1339.83 363.252 1340.8 359.043C1346.3 337.84 1350.19 316.474 1354.56 295.109C1358.93 274.391 1363.95 253.673 1369.13 233.117C1369.77 230.365 1370.42 227.613 1371.07 224.862C1372.04 219.844 1372.69 219.197 1377.87 219.197C1382.56 219.197 1387.09 219.682 1391.63 219.197C1391.63 219.197 1391.95 219.197 1392.11 219.197V219.035ZM1391.14 314.532C1392.6 314.532 1394.38 314.532 1394.7 314.532C1398.1 314.37 1399.56 314.046 1399.23 311.295C1398.75 306.763 1397.29 301.583 1396 297.213C1396 296.727 1395.02 295.594 1393.41 295.594C1391.79 295.594 1390.98 295.594 1390.17 297.051C1388.55 301.745 1387.9 307.248 1387.26 312.104C1387.09 313.399 1387.9 314.37 1389.2 314.532C1389.84 314.532 1390.33 314.532 1391.14 314.532Z" fill="#F4E8D9"/>
<path d="M1449.73 219.197C1459.44 218.549 1469.15 218.873 1478.87 219.197C1483.07 219.197 1487.28 219.197 1491.33 219.197C1495.38 219.197 1496.02 219.844 1496.02 223.891C1496.02 233.278 1496.02 242.504 1496.02 251.892C1496.02 255.453 1495.21 256.262 1491.65 256.262C1482.1 256.262 1472.72 256.262 1463.17 256.424C1457.82 256.424 1452.48 256.424 1447.14 256.748C1445.85 256.748 1444.55 256.748 1443.1 257.072C1441.31 257.395 1440.34 258.529 1440.34 260.147C1440.02 264.841 1440.02 269.697 1440.34 274.391C1440.51 276.495 1441.48 277.304 1443.74 277.466C1447.95 277.628 1452.16 277.628 1456.21 277.79C1459.12 277.79 1461.87 277.79 1464.78 277.79C1467.54 277.79 1468.35 278.761 1468.83 281.674C1468.83 281.998 1468.83 282.484 1468.83 282.807C1468.83 290.091 1468.51 297.213 1468.35 304.497C1468.35 306.439 1467.21 307.572 1465.27 308.058C1464.3 308.219 1463.49 308.543 1462.52 308.705C1456.69 309.191 1450.86 309.514 1444.88 310C1444.07 310 1443.42 310 1442.61 310C1440.51 310.162 1439.7 310.809 1439.7 312.752C1439.7 317.284 1439.7 321.816 1439.7 326.348C1439.7 328.614 1440.51 329.423 1442.77 329.747C1444.07 329.909 1445.36 329.909 1446.82 329.909C1454.26 329.909 1461.55 329.747 1468.99 329.099C1476.76 328.614 1484.53 328.776 1492.3 328.776C1495.54 328.776 1496.35 329.747 1496.51 332.984C1496.51 342.372 1496.51 351.598 1496.51 360.986C1496.51 363.899 1495.54 364.547 1492.79 365.032C1491.98 365.032 1491.33 365.032 1490.52 365.032C1476.28 364.547 1462.03 366.489 1447.79 365.518C1434.19 364.547 1426.91 365.194 1413.15 364.385C1409.75 364.223 1409.27 363.737 1409.1 360.338C1408.94 353.378 1408.46 346.256 1408.78 339.297C1409.27 328.452 1401.66 317.445 1401.98 306.601C1402.63 286.045 1402.47 265.65 1402.79 245.094C1402.79 239.267 1402.79 233.278 1402.79 227.451C1402.79 226.157 1402.79 224.862 1402.79 223.405C1402.95 221.624 1403.76 220.815 1405.71 220.491C1406.19 220.491 1406.84 220.491 1407.49 220.491C1414.93 220.168 1422.22 219.358 1429.66 219.52C1436.14 219.52 1442.61 219.52 1449.08 219.52L1449.73 219.197Z" fill="#F4E8D9"/>
<path d="M627.455 360.754C622.196 356.264 581.022 353.186 563.962 354.597C546.903 356.008 515.605 361.01 500.469 371.4C500.469 371.4 496.493 374.222 496.493 371.657C496.493 369.091 500.085 356.264 489.182 345.618C478.279 334.972 473.02 332.535 458.141 336.126C443.262 339.718 438.516 347.029 438.516 348.697C438.516 350.364 415.941 349.723 415.941 349.723C415.941 349.723 427.357 335.613 418.634 320.99C410.04 306.368 392.724 273.659 341.288 264.039C289.853 254.419 258.427 259.037 222.512 292.258C186.596 325.48 179.285 392.436 179.285 406.546C179.285 420.655 241.239 442.974 250.731 446.181C250.731 446.181 248.422 456.186 250.731 459.392C253.04 462.599 263.942 471.193 266.251 479.915C268.56 488.509 271.254 511.341 273.563 514.548C275.871 517.754 278.565 521.346 282.67 517.241C286.774 513.137 285.363 493.512 279.463 480.813C273.563 468.115 268.432 462.342 265.738 459.649C263.044 456.955 264.584 451.183 264.584 451.183C264.584 451.183 288.057 460.29 296.907 456.827C296.907 456.827 307.169 464.908 315.25 465.549C323.331 466.062 332.309 461.958 333.72 460.675C335.26 459.392 339.364 458.238 339.236 460.418C338.979 462.727 321.022 483.25 317.687 489.535C314.352 495.821 292.161 523.655 292.161 526.605C292.161 529.555 287.8 536.353 293.444 536.738C299.088 537.123 303.064 533.275 303.834 529.427C304.604 525.579 332.566 484.918 336.158 483.763C339.877 482.609 360.015 467.601 360.657 464.266C360.657 464.266 376.819 469.654 382.334 469.654C387.85 469.654 416.967 462.214 416.967 462.214C416.967 462.214 410.169 472.476 415.043 476.195C419.917 479.787 425.432 482.481 425.432 483.892V488.766C425.432 488.766 455.832 474.656 458.526 471.193C458.526 471.193 468.659 479.146 472.25 483.122C475.714 487.098 492.26 507.878 497.006 510.443C501.752 513.009 510.731 524.168 516.503 519.422C522.275 514.676 503.163 502.875 498.417 493.64C493.671 484.405 468.146 464.266 468.146 464.266C468.146 464.266 470.711 451.696 474.944 446.694C479.177 441.691 490.721 425.658 490.721 419.116C490.721 412.574 488.412 401.543 491.234 398.336C493.928 395.001 504.189 392.949 504.189 387.177C504.189 381.405 515.092 374.35 522.916 372.683C530.741 371.015 557.036 366.269 564.861 366.526C572.685 366.782 625.275 367.937 625.275 367.937C625.275 367.937 632.586 365.371 627.199 360.882L627.455 360.754ZM482.769 377.429C472.892 378.327 467.633 373.068 466.094 369.861C464.555 366.654 457.371 362.036 460.835 355.495C464.298 348.825 468.402 347.286 468.402 347.286C468.402 347.286 480.716 347.799 484.821 353.699C488.925 359.599 490.336 369.476 490.336 369.476C490.336 369.476 492.645 376.531 482.769 377.429Z" fill="#F4E8D9"/>
<path d="M248.681 441.819C248.681 441.819 244.063 459.905 238.035 466.447C232.134 472.86 216.614 478.119 212.124 482.224C207.763 486.329 199.682 495.179 197.374 497.231C195.065 499.284 191.473 503.388 188.01 500.566C184.675 497.745 181.853 490.69 188.01 486.072C194.167 481.454 211.483 467.73 219.307 463.112C227.003 458.494 238.933 441.948 239.959 438.741C240.985 435.534 248.553 441.819 248.553 441.819H248.681Z" fill="#F4E8D9"/>
<path d="M424.15 476.067C424.15 476.067 409.913 499.284 410.298 505.441C410.682 511.469 407.732 520.063 410.298 525.322C412.863 530.453 415.3 533.916 416.711 525.322C418.122 516.728 422.739 496.462 424.15 492.614C425.561 488.766 431.462 478.761 431.462 478.761L424.15 476.195V476.067Z" fill="#F4E8D9"/>
</svg>
