<svg width="378" height="275" viewBox="0 0 378 275" fill="none" xmlns="http://www.w3.org/2000/svg">
<path d="M316.098 124.955C313.398 122.649 292.258 121.068 283.5 121.793C274.741 122.517 258.672 125.087 250.901 130.424C250.901 130.424 248.86 131.874 248.86 130.556C248.86 129.238 250.704 122.649 245.106 117.18C239.508 111.711 236.808 110.46 229.169 112.304C221.53 114.149 219.093 117.905 219.093 118.762C219.093 119.618 207.503 119.289 207.503 119.289C207.503 119.289 213.364 112.041 208.886 104.53C204.473 97.0181 195.583 80.2163 169.175 75.2746C142.767 70.3328 126.633 72.7049 108.193 89.7703C89.7537 106.836 86 141.23 86 148.478C86 155.726 117.808 167.191 122.681 168.838C122.681 168.838 121.496 173.977 122.681 175.624C123.867 177.272 129.464 181.686 130.65 186.167C131.835 190.581 133.218 202.31 134.404 203.957C135.589 205.604 136.972 207.449 139.079 205.341C141.187 203.232 140.462 193.151 137.433 186.628C134.404 180.105 131.769 177.14 130.386 175.756C129.003 174.372 129.794 171.407 129.794 171.407C129.794 171.407 141.845 176.086 146.389 174.307C146.389 174.307 151.658 178.458 155.806 178.787C159.955 179.051 164.565 176.942 165.29 176.283C166.08 175.624 168.187 175.031 168.121 176.151C167.99 177.337 158.77 187.88 157.058 191.108C155.346 194.337 143.953 208.635 143.953 210.151C143.953 211.666 141.713 215.158 144.611 215.356C147.509 215.553 149.55 213.577 149.945 211.6C150.341 209.623 164.697 188.736 166.541 188.143C168.451 187.55 178.79 179.841 179.119 178.128C179.119 178.128 187.417 180.896 190.249 180.896C193.081 180.896 208.03 177.074 208.03 177.074C208.03 177.074 204.539 182.345 207.042 184.256C209.544 186.101 212.376 187.484 212.376 188.209V190.713C212.376 190.713 227.984 183.465 229.367 181.686C229.367 181.686 234.569 185.771 236.413 187.814C238.191 189.857 246.687 200.531 249.123 201.848C251.56 203.166 256.17 208.899 259.133 206.461C262.097 204.023 252.284 197.961 249.848 193.217C247.411 188.473 234.306 178.128 234.306 178.128C234.306 178.128 235.623 171.671 237.796 169.101C239.969 166.532 245.896 158.295 245.896 154.935C245.896 151.575 244.711 145.908 246.16 144.261C247.543 142.548 252.811 141.494 252.811 138.529C252.811 135.564 258.409 131.94 262.426 131.083C266.443 130.226 279.943 127.789 283.961 127.92C287.978 128.052 314.978 128.645 314.978 128.645C314.978 128.645 318.732 127.327 315.966 125.021L316.098 124.955ZM241.813 133.521C236.743 133.982 234.042 131.281 233.252 129.633C232.462 127.986 228.774 125.614 230.552 122.254C232.33 118.828 234.438 118.037 234.438 118.037C234.438 118.037 240.76 118.3 242.867 121.331C244.974 124.362 245.699 129.436 245.699 129.436C245.699 129.436 246.884 133.06 241.813 133.521Z" fill="#F4E8D9"/>
<path d="M121.629 166.597C121.629 166.597 119.258 175.888 116.163 179.248C113.134 182.543 105.165 185.244 102.86 187.353C100.621 189.461 96.4723 194.007 95.2869 195.062C94.1015 196.116 92.2576 198.224 90.4795 196.775C88.7673 195.325 87.3185 191.701 90.4795 189.329C93.6406 186.957 102.531 179.907 106.548 177.535C110.499 175.163 116.624 166.663 117.151 165.016C117.678 163.369 121.563 166.597 121.563 166.597H121.629Z" fill="#F4E8D9"/>
<path d="M211.785 184.19C211.785 184.19 204.475 196.116 204.673 199.279C204.87 202.375 203.356 206.79 204.673 209.492C205.99 212.127 207.241 213.906 207.966 209.492C208.69 205.077 211.061 194.666 211.785 192.69C212.51 190.713 215.539 185.574 215.539 185.574L211.785 184.256V184.19Z" fill="#F4E8D9"/>
</svg>
